<?xml version="1.0" encoding="UTF-8"?>
<svg width="93px" height="75px" viewBox="0 0 93 75" version="1.1" xmlns="http://www.w3.org/2000/svg" xmlns:xlink="http://www.w3.org/1999/xlink">
    <!-- Generator: Sketch 64 (93537) - https://sketch.com -->
    <title>成员</title>
    <desc>Created with Sketch.</desc>
    <g id="页面-1" stroke="none" stroke-width="1" fill="none" fill-rule="evenodd">
        <g id="工时数据" transform="translate(-145.000000, -139.000000)" fill="#32C5FF" fill-rule="nonzero">
            <path d="M203.32013,187.07213 C206.326588,182.095587 208.184714,175.828324 208.184714,170.624542 C208.184714,160.216977 200.720561,152 191.511306,152 C182.29753,152 174.828855,160.216977 174.828855,170.624542 C174.828855,175.8056 176.682461,182.04105 179.666314,187.008503 C172.649739,189.235449 165.868255,192.607682 162.396135,194.448321 C160.919493,195.229543 159.996395,196.770301 160,198.447735 L160,206.705615 C160,210.732297 163.512819,214 167.852969,214 L215.151559,214 C219.491708,214 223,210.732297 223,206.705615 L223,198.470459 C223.002228,196.783754 222.069541,195.236281 220.581267,194.457411 C217.100105,192.639496 210.300537,189.303621 203.311088,187.07213 L203.32013,187.07213 Z M215.995465,207.945419 L166,208 L166,200.063028 C166,200.063028 175.85941,195.196231 185.351474,192.217024 C186.241903,191.946189 186.956106,191.275445 187.283987,190.402105 C187.611868,189.528764 187.516133,188.552162 187.024943,187.759584 C184.852608,184.248213 182.272109,180.100065 181.219955,174.805718 C179.414966,165.722547 184.825397,159 191.129252,159 C197.097506,159 202.394558,165.863548 200.630386,174.878493 C199.632653,179.977258 196.988662,184.189084 194.770975,187.750487 C194.272638,188.545498 194.173953,189.528583 194.504279,190.407265 C194.834604,191.285947 195.555878,191.958976 196.453515,192.226121 C204.689342,194.700455 215.99093,200.272255 215.99093,200.272255 L215.99093,207.949968 L216,207.949968 L215.995465,207.945419 Z M218.242433,174.071526 C225.717288,176.434469 232.956287,180.069766 236.212929,181.796532 C237.319643,182.378179 238,183.51421 238,184.759299 L238,193.706673 C238,197.732764 234.480286,201 230.130537,201 L228.461395,201 C227.60249,201.002401 226.777808,200.662883 226.168769,200.056125 C225.559731,199.449366 225.216227,198.62507 225.213824,197.764573 C225.213824,195.983278 226.665252,194.538247 228.456859,194.533703 L231.45043,194.533703 L231.45043,186.858683 C231.45043,186.858683 220.129289,181.28759 211.892434,178.815588 C210.999177,178.55163 210.280808,177.883885 209.951269,177.01122 C209.621731,176.138555 209.719041,175.161648 210.21422,174.371438 C212.43672,170.813391 215.085576,166.600991 216.083433,161.493399 C217.852361,152.486951 212.554648,145.634417 206.585649,145.634417 C204.041114,145.634417 201.659865,146.738638 199.827437,148.642625 C198.843111,149.688057 197.309976,150.002523 195.994759,149.428758 C195.002018,148.989384 194.283514,148.095085 194.067205,147.029591 C193.850895,145.964097 194.163629,144.859665 194.906188,144.066695 C197.899758,140.917619 201.936543,139 206.39515,139 C215.634398,139 223.127396,147.215771 223.127396,157.621808 C223.127396,162.820282 221.258682,169.091169 218.242433,174.071526 L218.242433,174.071526 Z M164.756127,174.071533 C161.740097,169.091176 159.871519,162.820287 159.871519,157.621812 C159.871519,147.215773 167.363972,139 176.602546,139 C181.056292,139 185.101853,140.917619 188.095205,144.066696 C188.83744,144.8603 189.149471,145.965259 188.932256,147.030848 C188.715042,148.096437 187.995558,148.990316 187.002178,149.42876 C185.685823,150.004682 184.150274,149.69007 183.165244,148.642627 C181.337485,146.734096 178.956409,145.629874 176.407524,145.629874 C170.443496,145.629874 165.146169,152.486954 166.910433,161.493404 C167.908217,166.600997 170.561416,170.808854 172.783754,174.371445 C173.278897,175.161655 173.3762,176.138563 173.046686,177.011228 C172.717171,177.883893 171.998854,178.551638 171.105662,178.815597 C162.869407,181.287599 151.544557,186.858693 151.544557,186.858692 L151.544557,194.52917 L154.53791,194.533714 C156.333921,194.533714 157.785243,195.983289 157.785243,197.764585 C157.785243,199.550425 156.333921,201 154.53791,201 L152.868889,201 C148.519457,201 145,197.732776 145,193.706684 L145,184.754764 C145,183.514219 145.680307,182.378188 146.786941,181.791997 C150.043345,180.06523 157.281816,176.439021 164.756127,174.066989 L164.756127,174.071533 Z" id="成员"></path>
        </g>
    </g>
</svg>