<?xml version="1.0" encoding="UTF-8"?>
<svg width="75px" height="75px" viewBox="0 0 75 75" version="1.1" xmlns="http://www.w3.org/2000/svg" xmlns:xlink="http://www.w3.org/1999/xlink">
    <!-- Generator: Sketch 64 (93537) - https://sketch.com -->
    <title>工时</title>
    <desc>Created with Sketch.</desc>
    <g id="页面-1" stroke="none" stroke-width="1" fill="none" fill-rule="evenodd">
        <g id="工时数据" transform="translate(-1008.000000, -137.000000)" fill="#32C5FF" fill-rule="nonzero">
            <path d="M1036.39286,163.785714 C1035.32143,162.714286 1033.71429,162.714286 1032.64286,163.785714 C1031.57143,164.857143 1031.57143,166.464286 1032.64286,167.535714 L1043.89286,178.785714 C1044.96429,179.857143 1046.57143,179.857143 1047.64286,178.785714 L1073.89286,152.535714 C1074.96429,151.464286 1074.96429,149.857143 1073.89286,148.785714 C1072.82143,147.714286 1071.21429,147.714286 1070.14286,148.785714 L1046.03571,172.892857 L1036.39286,163.785714 Z M1080.85714,161.642857 C1080.32143,160.035714 1078.71429,159.5 1077.64286,160.035714 C1076.03571,160.571429 1075.5,162.178571 1076.03571,163.25 C1077.10714,165.928571 1077.64286,168.607143 1077.64286,171.285714 L1074.96429,171.285714 C1073.35714,171.821429 1072.28571,172.892857 1072.28571,174.5 C1072.28571,176.107143 1073.35714,177.178571 1074.96429,177.178571 L1077.64286,177.178571 C1076.57143,192.714286 1063.71429,205.035714 1048.17857,206.642857 L1048.17857,203.964286 C1048.17857,202.357143 1047.10714,201.285714 1045.5,201.285714 C1043.89286,201.285714 1042.82143,202.357143 1042.82143,203.964286 L1042.82143,206.642857 C1027.28571,205.035714 1014.96429,192.714286 1013.35714,177.178571 L1016.03571,177.178571 C1017.64286,177.178571 1018.71429,176.107143 1018.71429,174.5 C1018.71429,172.892857 1017.64286,171.821429 1016.03571,171.821429 L1013.35714,171.821429 C1014.96429,156.285714 1027.28571,143.964286 1042.82143,142.357143 L1042.82143,145.035714 C1042.82143,146.642857 1043.89286,147.714286 1045.5,147.714286 C1047.10714,147.714286 1048.17857,146.642857 1048.17857,145.035714 L1048.17857,142.357143 C1050.85714,142.357143 1053.53571,142.892857 1056.21429,143.964286 C1057.82143,144.5 1058.89286,143.964286 1059.42857,142.357143 C1059.96429,140.75 1059.42857,139.678571 1057.82143,139.142857 C1054.07143,137.535714 1049.78571,137 1045.5,137 C1024.60714,137 1008,153.607143 1008,174.5 C1008,195.392857 1024.60714,212 1045.5,212 C1066.39286,212 1083,195.392857 1083,174.5 C1083,170.214286 1082.46429,165.928571 1080.85714,161.642857 Z" id="工时"></path>
        </g>
    </g>
</svg>