<?xml version="1.0" encoding="UTF-8"?>
<svg width="75px" height="75px" viewBox="0 0 75 75" version="1.1" xmlns="http://www.w3.org/2000/svg" xmlns:xlink="http://www.w3.org/1999/xlink">
    <!-- Generator: Sketch 64 (93537) - https://sketch.com -->
    <title>bug</title>
    <desc>Created with Sketch.</desc>
    <g id="页面-1" stroke="none" stroke-width="1" fill="none" fill-rule="evenodd">
        <g id="工时数据" transform="translate(-1439.000000, -139.000000)" fill="#32C5FF" fill-rule="nonzero">
            <path d="M1469.38084,145.02066 C1470.95247,145.034681 1472.22306,146.297263 1472.23716,147.858975 L1472.23716,159.255185 L1492.57761,159.255185 C1492.86527,159.252871 1493.14182,159.365398 1493.34523,159.567525 C1493.54864,159.769652 1493.66188,160.044458 1493.65959,160.3303 L1493.65959,172.113551 C1493.24296,172.063498 1492.82406,172.034791 1492.4045,172.027542 C1488.53874,172.004831 1484.9562,174.039086 1483.01327,177.360108 L1483.01327,177.446118 L1473.83843,193.271798 C1472.44491,192.87639 1471.00317,192.673794 1469.55395,192.669734 L1469.33756,192.669734 C1460.96264,192.7184 1454.09439,199.278649 1453.71437,207.592354 L1446.1408,207.592354 C1445.85314,207.594634 1445.57659,207.482107 1445.37318,207.27998 C1445.16977,207.077853 1445.05653,206.803047 1445.05882,206.517205 L1445.05882,199.034411 C1453.44928,198.654575 1460.05859,191.790406 1460.07016,183.444269 C1460.08173,175.098132 1453.49147,168.215897 1445.10214,167.813094 L1445.10214,160.287295 C1445.09245,159.706285 1445.55619,159.226274 1446.1408,159.212181 L1466.48125,159.212181 L1466.48125,147.858975 C1466.50024,146.282519 1467.79427,145.01584 1469.38084,145.02066 M1505.08482,180.542446 C1506.65645,180.556454 1507.92705,181.819036 1507.94114,183.380748 C1507.94698,184.338688 1507.45649,185.232244 1506.64282,185.745999 L1503.61339,180.542446 L1505.08482,180.542446 M1469.38084,139.000017 C1464.44615,138.99052 1460.43671,142.955425 1460.42239,147.858975 L1460.42239,153.191541 L1446.1408,153.191541 C1444.25196,153.194951 1442.44211,153.945009 1441.11057,155.27622 C1439.77903,156.607431 1439.03523,158.410391 1439.04328,160.287295 L1439.04328,173.790729 L1444.36642,173.790729 C1449.69646,173.790729 1454.01731,178.084327 1454.01731,183.380748 C1454.01731,188.677169 1449.69646,192.970766 1444.36642,192.970766 L1439,192.970766 L1439,206.474201 C1439.00477,210.391113 1442.19902,213.565215 1446.1408,213.569954 L1459.72995,213.569954 L1459.72995,208.237388 C1459.73472,202.942932 1464.05278,198.652111 1469.38084,198.647369 L1469.55395,198.647369 C1472.0056,198.663541 1474.35263,199.636587 1476.08886,201.356657 L1488.24986,180.413433 C1489.10124,178.935301 1490.69066,178.030436 1492.4045,178.048181 C1494.10681,178.031351 1495.68294,178.938091 1496.51587,180.413433 L1503.397,192.239689 L1505.08482,192.239689 C1510.00854,192.239689 1514,188.273406 1514,183.380748 C1514,178.48809 1510.00854,174.521807 1505.08482,174.521807 L1499.71841,174.521807 L1499.71841,160.3303 C1499.71364,156.413388 1496.51939,153.239285 1492.57761,153.234546 L1478.29602,153.234546 L1478.29602,147.858975 C1478.29947,145.508388 1477.3613,143.253088 1475.68864,141.59097 C1474.01597,139.928852 1471.74635,138.996603 1469.38084,139.000017 Z M1508.0277,209.312502 L1495.08771,187.036136 C1494.51923,186.076254 1493.48206,185.486928 1492.36122,185.486928 C1491.24039,185.486928 1490.20322,186.076254 1489.63474,187.036136 L1476.69475,209.312502 C1476.13654,210.280307 1476.13872,211.470145 1476.70047,212.435925 C1477.26222,213.401704 1478.29867,213.997524 1479.42123,214 L1505.30121,214 C1506.42378,213.997524 1507.46023,213.401704 1508.02198,212.435925 C1508.58372,211.470145 1508.5859,210.280307 1508.0277,209.312502 L1508.0277,209.312502 Z M1490.50029,194.13189 C1490.49491,193.973056 1490.57812,193.824221 1490.71668,193.744849 C1490.84537,193.625815 1491.01715,193.563744 1491.19273,193.57283 L1493.57299,193.57283 C1493.74857,193.563744 1493.92035,193.625815 1494.04905,193.744849 C1494.16872,193.841294 1494.24625,193.979969 1494.26544,194.13189 L1494.26544,204.452986 C1494.27082,204.61182 1494.18761,204.760655 1494.04905,204.840027 C1493.92035,204.95906 1493.74857,205.021131 1493.57299,205.012045 L1491.19273,205.012045 C1491.01715,205.021131 1490.84537,204.95906 1490.71668,204.840027 C1490.597,204.743582 1490.51947,204.604907 1490.50029,204.452986 L1490.50029,194.13189 L1490.50029,194.13189 Z M1494.04905,210.086584 C1493.94107,210.243348 1493.76409,210.339272 1493.57299,210.344612 L1491.14945,210.344612 C1490.95835,210.339272 1490.78138,210.243348 1490.6734,210.086584 C1490.5387,209.913857 1490.4629,209.702964 1490.45701,209.48452 L1490.45701,208.06537 C1490.44231,207.843591 1490.52064,207.625657 1490.6734,207.463306 C1490.78138,207.306542 1490.95835,207.210619 1491.14945,207.205278 L1493.52972,207.205278 C1493.72082,207.210619 1493.89779,207.306542 1494.00577,207.463306 C1494.14047,207.636033 1494.21627,207.846927 1494.22216,208.06537 L1494.22216,209.48452 C1494.28027,209.701572 1494.21378,209.932801 1494.04905,210.086584 L1494.04905,210.086584 Z" id="bug"></path>
        </g>
    </g>
</svg>