<?xml version="1.0" encoding="UTF-8"?>
<svg width="77px" height="75px" viewBox="0 0 77 75" version="1.1" xmlns="http://www.w3.org/2000/svg" xmlns:xlink="http://www.w3.org/1999/xlink">
    <!-- Generator: Sketch 64 (93537) - https://sketch.com -->
    <title>任务</title>
    <desc>Created with Sketch.</desc>
    <g id="页面-1" stroke="none" stroke-width="1" fill="none" fill-rule="evenodd">
        <g id="工时数据" transform="translate(-584.000000, -139.000000)" fill="#32C5FF" fill-rule="nonzero">
            <path d="M649.29944,139 L595.700727,139 C589.284627,139 584,144.329988 584,150.802225 L584,202.197775 C584,208.669928 589.284543,214 595.700643,214 L649.299357,214 C655.716212,214 661,208.670012 661,202.197775 L661,150.802225 C661,144.330072 656.093901,139 649.299357,139 L649.29944,139 Z M655.338691,202.578859 C655.338691,206.004766 652.697133,208.669844 649.299524,208.669844 L595.700811,208.669844 C592.303875,208.669844 589.661645,206.00485 589.661645,202.578859 L589.661645,150.802057 C589.661645,147.37615 592.303875,144.711072 595.700811,144.711072 L649.299524,144.711072 C652.697133,144.711072 655.338691,147.376067 655.338691,150.802057 L655.338691,202.578859 Z M612.309064,157.654792 L604.005273,166.030189 L600.230648,162.223784 C599.09758,161.081536 597.210729,161.081536 596.456022,162.223784 C595.322954,163.365278 595.322954,165.269276 596.456022,166.030189 L602.495188,172.121927 C602.872877,172.502425 603.627584,172.882923 604.759729,172.882923 C605.892796,172.882923 605.892796,172.502425 607.024269,172.121927 L617.215667,161.842532 C618.348734,160.700284 618.348734,158.79704 617.215667,158.03529 C614.951126,156.893795 613.441041,156.893795 612.308812,157.654792 L612.309064,157.654792 Z M647.0349,162.223784 L620.99046,162.223784 C619.103609,162.223784 618.348231,163.365278 618.348231,164.888778 C618.348231,166.792022 619.481298,167.553772 620.99046,167.553772 L647.035571,167.553772 C648.922423,167.553772 649.67713,166.411524 649.67713,164.888778 C649.67713,163.365278 648.544062,162.223784 647.0349,162.223784 Z M605.514436,179.355076 C600.607581,179.355076 596.832956,183.162318 596.832956,188.111724 C596.832956,193.060461 600.607581,196.86762 605.514436,196.86762 C610.422129,196.86762 614.195916,193.060378 614.195916,188.111724 C614.195916,182.781736 610.04444,179.355076 605.514436,179.355076 Z M605.514436,190.776635 C603.627584,190.776635 602.495188,189.634387 602.495188,187.731142 C602.495188,185.827228 603.627584,184.684897 605.514436,184.684897 C607.40221,184.684897 608.534354,185.827145 608.534354,187.731142 C608.534354,189.634387 607.024269,190.776635 605.514436,190.776635 Z M647.0349,185.065395 L620.99046,185.065395 C619.103609,185.065395 618.348231,186.207643 618.348231,187.731142 C618.348231,189.253135 619.481298,190.396137 620.99046,190.396137 L647.035571,190.396137 C648.922423,190.396137 649.67713,189.253889 649.67713,187.731142 C649.67713,186.207643 648.544062,185.066148 647.0349,185.066148 L647.0349,185.065395 Z" id="任务"></path>
        </g>
    </g>
</svg>